<svg xmlns="http://www.w3.org/2000/svg"
     viewBox="0 0 512 512"
     fill="#6366f1">
  <g transform="translate(0,512) scale(0.1,-0.1)" stroke="none">
    <path d="M2225 5024 c-270 -36 -613 -149 -840 -277 -231 -130 -410 -263 -570
-422 -342 -342 -568 -750 -676 -1219 -37 -159 -52 -367 -43 -576 12 -274 86
-412 262 -492 l67 -31 645 -4 c355 -2 767 -3 916 -3 265 0 272 -1 304 -23 18
-12 43 -35 54 -50 20 -27 21 -44 26 -323 l5 -295 508 508 508 508 -1133 5
c-1254 6 -1157 0 -1223 70 -27 28 -30 38 -30 96 l0 64 380 381 c940 942 1409
1405 1438 1421 72 39 163 10 199 -62 16 -32 18 -77 18 -490 0 -250 3 -465 6
-477 3 -12 21 -29 39 -37 29 -14 138 -16 942 -16 500 0 912 3 915 6 4 3 -6 42
-22 87 -195 565 -553 1005 -1070 1314 -216 129 -490 242 -700 288 -41 9 -91
20 -110 25 -152 39 -602 52 -815 24z"/>
    <path d="M2160 3205 c-300 -300 -546 -547 -548 -549 -1 -1 521 -3 1160 -3
1305 0 1218 5 1257 -72 23 -45 26 -95 8 -128 -19 -34 -1698 -1723 -1738 -1749
-56 -35 -98 -39 -155 -15 -55 24 -91 68 -105 128 -5 21 -9 217 -9 436 l0 397
-880 0 -880 0 9 -22 c14 -37 60 -127 119 -233 309 -559 821 -990 1397 -1177
314 -101 615 -139 946 -119 329 20 608 95 940 253 l107 50 89 -26 c48 -15 126
-39 173 -53 47 -14 119 -36 160 -48 41 -12 116 -35 165 -50 50 -15 104 -31
120 -35 17 -5 75 -22 130 -39 54 -16 101 -28 103 -26 2 2 -1 12 -6 22 -6 10
-22 61 -36 113 -14 52 -40 145 -57 205 -17 61 -42 150 -55 198 -13 49 -26 92
-29 97 -11 17 -45 163 -45 191 0 15 11 41 25 57 28 33 95 131 95 139 0 3 10
18 21 35 43 60 124 221 193 383 56 131 115 348 152 555 24 132 28 183 28 350
1 193 1 196 -26 246 -47 89 -104 143 -193 182 -57 25 -252 31 -1095 30 -614 0
-853 3 -875 12 -33 12 -80 53 -98 85 -8 14 -14 131 -17 373 l-5 352 -545 -545z"/>
  </g>
</svg>
